<svg xmlns="http://www.w3.org/2000/svg" viewBox="0 0 339.54 271.11"><defs><style>.cls-1{fill:#241a17;}.cls-2{fill:none;stroke:#231815;stroke-miterlimit:10;stroke-width:11px;}</style></defs><title>资源 3</title><g id="图层_2" data-name="图层 2"><g id="图层_1-2" data-name="图层 1"><path class="cls-1" d="M180.25,86.93c5.73-.75,11.18-5.22,16.69-.21-6.59,2-7.62,4.47-4.82,10.59,2.15,4.72,6.1,7.27,10.6,9.3a426.41,426.41,0,0,1,68.94,39,143,143,0,0,1,17.39,14.14c16.56,15.87,33.25,31.6,50.49,48-5.56-.33-10.05-1.84-14.57-3.1C283.19,192.94,246.07,173,215.1,142.3c-9-9-16.63-18.91-21.39-31C190.32,102.73,186.48,94.23,180.25,86.93Z"/><path class="cls-1" d="M142.64,86.89c5.82-5.33,11.21-.3,17-.22-7,8.39-11.05,18.25-15.13,28-4,9.57-10.13,17.58-17.23,24.87-34.47,35.37-76.57,56.87-124.33,68-.64.14-1.3.14-2.92.3,3.69-3.5,6.77-6.43,9.86-9.35C25.08,184,40,169.23,55.63,155.25c13.81-12.35,30-21.4,45.91-30.81,11.47-6.78,23.67-12.11,35.65-17.88,4.63-2.23,8.65-4.94,10.71-9.9C150.29,90.93,149.11,88.57,142.64,86.89Z"/><path class="cls-1" d="M156.24,109.32c4.59,8.91,5.63,17.76,1.48,27.33-1.83-1.46-.81-3.67-2.89-4.85-1.35,5.16-2.92,10.21-4,15.36s-1.76,10.5-2.32,15.78c-1.12,10.68-4.57,20.21-11.64,28.59s-13.21,17.08-19.85,25.77C111.12,194.6,133.8,132.05,156.24,109.32Z"/><path class="cls-1" d="M223.3,217.07c-9.78-11.68-19.63-23.15-27.51-36-4.13-6.74-4.32-15-5.24-22.69-1.08-9-3.31-17.77-5.64-26.56-2.16.85-1.17,3.09-2.23,4.32-4.76-5.71-4.45-16.83,1.09-27,12.62,15.45,21.5,32.74,29.58,50.46C221.65,177.84,220.82,197.72,223.3,217.07Z"/><circle class="cls-2" cx="169.03" cy="135.56" r="130.06"/></g></g></svg>